<svg width="275" height="275" viewBox="0 0 275 275" fill="none" xmlns="http://www.w3.org/2000/svg">
<path d="M166.927 179.622C236.779 150.351 280.007 109.778 263.478 89.0006C246.95 68.2229 176.925 75.1075 107.073 104.378C37.2211 133.649 -6.00649 174.222 10.5219 195C27.0504 215.777 97.075 208.892 166.927 179.622Z" stroke="white" stroke-width="10" stroke-linecap="round" stroke-linejoin="round"/>
<path d="M237 160C248.046 160 257 151.046 257 140C257 128.954 248.046 120 237 120C225.954 120 217 128.954 217 140C217 151.046 225.954 160 237 160Z" fill="white"/>
<path d="M174.596 68.9324C157.966 68.9323 144.036 81.5209 142.358 98.0658L139.145 129.737C138.152 140.33 137.656 150.924 137.656 161.517C137.656 181.715 139.996 194.004 144.676 198.382C149.497 202.62 154.957 204.738 161.055 204.738C173.744 204.738 181.629 197.313 184.708 182.464C185.106 180.544 186.755 179.102 188.716 179.102C191.088 179.102 192.932 181.184 192.588 183.531C187.278 219.844 171.803 238 146.166 238C118.23 238 104.262 222.04 104.262 190.119C104.262 174.018 105.821 153.961 108.94 129.95L114.116 89.8182C115.545 78.7432 106.919 68.933 95.752 68.933C84.124 68.933 75.0485 70.9105 68.5254 74.8655C62.556 78.4329 56.9587 85.461 51.7337 95.9497C51.0622 97.2978 49.6967 98.1701 48.1907 98.1701C45.5958 98.1701 43.7273 95.6759 44.5149 93.2034C48.7232 79.9923 53.6067 69.3596 59.1654 61.3053C65.4051 52.1242 71.361 45.9801 77.0332 42.8729C82.7058 39.6243 91.1434 38 102.346 38H191.534C200.076 38 207 44.9245 207 53.4662C207 62.0081 200.075 68.9325 191.534 68.9325L174.596 68.9324Z" fill="white"/>
</svg>
